<?xml version="1.0" standalone="no"?>
<!DOCTYPE svg PUBLIC "-//W3C//DTD SVG 20010904//EN"
 "http://www.w3.org/TR/2001/REC-SVG-20010904/DTD/svg10.dtd">
<svg version="1.0" xmlns="http://www.w3.org/2000/svg"
 width="1000.000000pt" height="1000.000000pt" viewBox="0 0 1000.000000 1000.000000"
 preserveAspectRatio="xMidYMid meet">
<metadata>
Created by potrace 1.14, written by Peter Selinger 2001-2017
</metadata>
<g transform="translate(0.000000,1000.000000) scale(0.100000,-0.100000)"
fill="#000000" stroke="none">
<path d="M4977 8523 c-2 -1 -266 -11 -344 -12 l-33 -1 3 -52 3 -53 107 1 107
0 1 -30 c0 -17 2 -58 4 -91 1 -33 6 -150 9 -259 4 -110 9 -203 11 -206 4 -6
64 -6 118 -1 7 1 5 106 -8 466 l-5 125 33 1 c120 4 166 7 174 12 8 5 9 43 4
100 -1 6 -178 7 -184 0z"/>
<path d="M4239 8454 l-46 -14 47 -157 c27 -87 57 -186 68 -220 20 -63 17 -78
-9 -47 -18 22 -278 217 -366 275 l-73 47 -47 -14 c-25 -8 -48 -16 -50 -18 -2
-2 37 -140 88 -307 50 -167 95 -318 100 -335 l9 -32 55 17 c30 9 57 19 59 22
3 3 2 19 -3 35 -44 143 -131 437 -131 441 0 5 145 -100 215 -156 61 -49 180
-148 240 -202 20 -18 23 -18 73 -2 29 9 51 22 49 28 -3 8 -172 565 -193 638
-6 20 -23 21 -85 1z"/>
<path d="M5562 8454 c-153 -39 -255 -193 -254 -382 0 -168 85 -281 246 -327
101 -29 223 -9 297 50 104 82 165 271 134 415 -38 178 -236 292 -423 244z
m200 -130 c155 -80 114 -409 -57 -469 -73 -24 -180 6 -221 62 -65 88 -57 250
16 351 62 85 163 107 262 56z"/>
<path d="M6301 8148 c-27 -57 -63 -134 -81 -173 -18 -38 -61 -130 -96 -204
-35 -73 -64 -137 -64 -142 0 -4 21 -18 48 -31 26 -12 50 -24 55 -26 4 -2 33
50 65 117 l57 120 47 -21 c41 -17 49 -26 55 -57 4 -20 8 -38 8 -41 1 -3 5 -32
10 -65 4 -33 9 -67 11 -75 1 -8 3 -33 3 -56 1 -39 3 -41 60 -69 33 -15 63 -27
67 -26 15 3 -11 260 -32 315 -5 13 1 16 32 16 86 1 162 62 188 152 36 120 -29
217 -201 301 -77 37 -155 67 -177 67 -4 0 -29 -46 -55 -102z m184 -63 c77 -36
125 -84 125 -127 0 -71 -60 -125 -124 -113 -44 9 -157 56 -154 65 12 30 93
200 95 200 1 0 27 -11 58 -25z"/>
<path d="M3265 8084 c-99 -58 -184 -109 -188 -113 -5 -5 51 -111 124 -237 72
-126 140 -245 151 -264 21 -37 60 -103 64 -109 2 -2 22 8 46 21 103 59 363
210 366 213 2 2 -10 24 -25 49 l-29 45 -139 -80 c-77 -45 -145 -83 -151 -86
-9 -3 -52 62 -110 168 -1 3 43 31 99 63 56 31 111 62 122 69 11 7 22 13 24 14
2 1 -9 23 -23 48 l-27 46 -57 -32 c-31 -18 -61 -35 -67 -39 -23 -17 -127 -71
-129 -68 -1 2 -12 19 -23 38 -11 19 -29 51 -41 71 l-21 35 137 79 c75 43 139
80 141 81 5 5 -49 94 -57 93 -4 0 -88 -47 -187 -105z"/>
<path d="M7019 7744 c-66 -20 -136 -71 -192 -139 -126 -157 -122 -344 11 -473
170 -165 400 -131 547 82 57 83 80 185 62 276 -17 88 -97 184 -190 231 -70 36
-167 45 -238 23z m198 -128 c39 -20 79 -65 97 -107 44 -105 -38 -269 -167
-333 -85 -43 -165 -29 -232 39 -88 91 -68 225 51 341 79 77 175 100 251 60z"/>
<path d="M2734 7691 c-57 -19 -120 -61 -185 -122 -79 -75 -111 -117 -102 -132
4 -8 46 -56 93 -107 47 -51 92 -101 100 -110 17 -19 155 -169 222 -242 l44
-47 47 45 47 44 -59 63 c-32 34 -72 79 -90 99 l-32 36 42 34 c23 18 45 32 49
31 5 -1 22 -5 40 -8 43 -8 134 -30 202 -51 l57 -16 51 48 50 48 -42 16 c-72
27 -166 52 -241 65 -39 6 -47 10 -41 24 35 82 25 153 -31 218 -61 71 -136 93
-221 64z m113 -143 c30 -28 43 -75 30 -112 -6 -16 -36 -55 -68 -88 l-58 -59
-43 48 c-24 26 -58 63 -75 83 -18 19 -33 38 -33 41 0 11 78 78 116 99 47 25
96 21 131 -12z"/>
<path d="M7744 7162 c-21 -16 -147 -107 -279 -202 -132 -95 -241 -174 -242
-175 -7 -4 70 -100 79 -97 11 3 33 19 157 110 l86 63 3 -40 c4 -51 -21 -190
-54 -299 l-25 -83 45 -61 c25 -34 46 -60 46 -57 0 2 12 38 26 79 29 83 58 198
70 275 4 28 9 53 10 58 1 4 2 22 3 41 1 34 1 34 39 26 20 -5 60 -11 87 -14 28
-3 61 -8 75 -10 14 -3 50 -7 80 -10 30 -3 79 -9 109 -12 60 -7 60 -11 3 69
-19 26 -37 47 -40 48 -4 0 -15 2 -25 4 -9 2 -50 6 -90 10 -39 4 -81 9 -92 11
-11 2 -47 7 -80 10 -109 12 -109 12 14 100 61 43 111 82 111 86 0 11 -61 98
-69 98 -4 0 -25 -13 -47 -28z"/>
<path d="M2052 6979 l-33 -51 42 -71 c77 -130 335 -515 369 -551 5 -4 25 17
45 48 l37 55 -52 71 -52 70 24 33 c14 17 51 70 83 117 32 47 59 87 61 88 1 2
37 -6 78 -17 42 -12 82 -21 89 -21 16 0 81 100 70 110 -7 6 -288 81 -353 94
-14 3 -68 14 -120 26 -69 16 -255 52 -255 50 0 0 -15 -23 -33 -51z m283 -120
c72 -17 132 -33 133 -34 7 -7 -122 -184 -129 -179 -5 3 -43 57 -86 122 -43 64
-82 121 -88 125 -12 9 4 6 170 -34z"/>
<path d="M4285 6662 l-230 -2 -195 -343 c-107 -188 -246 -432 -309 -542 -63
-110 -125 -220 -139 -245 -14 -25 -52 -92 -85 -150 -34 -58 -71 -123 -83 -145
-12 -22 -47 -85 -78 -140 -54 -94 -57 -101 -43 -125 8 -14 114 -200 235 -415
121 -214 326 -577 455 -805 l236 -415 948 -2 948 -3 95 167 c52 91 109 192
126 222 41 74 226 399 274 481 21 36 47 81 57 100 20 36 347 611 378 665 l17
30 -207 365 c-114 201 -216 381 -227 400 -10 19 -23 42 -28 50 -11 18 -56 96
-95 166 -15 27 -91 162 -170 299 -78 138 -157 277 -175 310 -18 33 -36 63 -39
68 -7 7 -1230 14 -1666 9z m1460 -91 c22 -3 32 1 -455 -158 -195 -64 -402
-131 -460 -150 -204 -67 -472 -153 -476 -153 -3 0 -18 28 -33 63 -28 62 -48
104 -135 291 -25 54 -46 101 -46 105 0 5 1551 7 1605 2z m160 -96 c3 -22 8
-49 9 -60 2 -11 23 -126 46 -255 23 -129 44 -244 45 -255 10 -62 18 -105 26
-143 5 -23 12 -59 15 -80 3 -20 7 -44 9 -52 2 -8 7 -35 10 -60 3 -25 10 -61
15 -80 5 -19 11 -53 15 -75 3 -22 10 -67 16 -100 10 -57 15 -85 23 -130 2 -11
9 -47 15 -80 24 -137 24 -127 -1 -114 -24 13 -738 450 -823 504 -27 17 -236
145 -462 285 -227 139 -413 256 -413 260 0 7 81 34 865 289 541 176 580 189
582 187 0 0 4 -19 8 -41z m-1760 -125 c37 -80 80 -173 96 -208 16 -34 29 -68
29 -74 0 -6 -26 -36 -57 -66 -32 -30 -139 -131 -237 -226 -261 -250 -259 -248
-436 -416 -89 -85 -183 -176 -209 -202 -25 -26 -49 -48 -53 -48 -3 0 32 66 79
148 47 81 97 169 112 196 14 27 31 56 36 65 15 24 235 411 275 485 147 265
286 503 292 497 3 -3 36 -71 73 -151z m1916 -68 c17 -31 41 -73 52 -92 11 -19
47 -84 82 -145 65 -115 93 -166 140 -250 15 -27 31 -54 35 -60 4 -5 23 -39 43
-75 19 -36 105 -189 191 -340 l156 -275 -42 -11 c-110 -29 -431 -95 -442 -91
-7 3 -16 27 -20 54 -3 26 -8 59 -11 73 -4 23 -6 34 -19 100 -3 14 -10 52 -15
85 -9 57 -36 211 -46 265 -3 14 -7 39 -10 55 -3 17 -10 53 -15 80 -5 28 -11
61 -14 75 -2 14 -11 63 -19 110 -9 47 -18 101 -21 120 -3 19 -8 46 -10 60 -3
14 -17 90 -31 169 -14 80 -29 149 -32 154 -3 6 -1 7 5 4 5 -4 25 -33 43 -65z
m-1244 -578 c230 -141 510 -313 623 -383 586 -359 693 -427 692 -435 0 -8 -82
-59 -132 -83 -8 -4 -53 -29 -100 -56 -47 -27 -105 -61 -130 -75 -25 -13 -74
-42 -110 -62 -36 -21 -81 -47 -100 -57 -19 -11 -60 -34 -90 -50 -30 -17 -142
-81 -249 -142 -106 -61 -195 -111 -198 -111 -2 0 -29 -16 -59 -35 -30 -19 -56
-35 -58 -35 -2 0 -93 -51 -202 -113 -110 -62 -229 -129 -265 -150 l-67 -37 0
1046 c0 877 3 1044 14 1040 7 -3 202 -121 431 -262z m-531 -769 c0 -558 -1
-1015 -2 -1015 -2 0 -220 222 -290 296 -27 29 -140 146 -250 260 -111 115
-225 234 -254 264 -29 30 -91 95 -138 143 l-87 89 141 136 c78 76 235 227 349
337 369 353 468 449 494 477 15 15 28 27 31 27 3 1 5 -456 6 -1014z m2466 -7
c-17 -29 -183 -322 -254 -448 -113 -203 -531 -936 -536 -940 -3 -3 -2 3 2 14
3 10 15 58 26 105 10 47 42 185 70 306 29 121 53 227 55 235 2 8 11 47 20 85
9 39 18 77 20 85 49 215 108 458 114 469 7 14 70 33 156 46 22 4 43 8 46 11 4
2 22 6 40 9 19 3 81 17 139 30 58 13 109 24 113 24 5 1 0 -14 -11 -31z m-587
-150 c-5 -16 -154 -643 -160 -676 -2 -12 -6 -30 -9 -40 -3 -9 -8 -28 -10 -42
-3 -14 -12 -52 -20 -85 -24 -103 -58 -250 -60 -260 -29 -136 -51 -204 -65
-202 -50 8 -1381 343 -1381 347 0 3 105 65 233 138 127 73 243 139 257 147 56
33 349 199 399 227 29 17 74 42 100 57 25 15 53 30 61 34 8 4 155 88 325 186
171 99 315 180 322 180 7 1 10 -5 8 -11z m-2359 -494 c122 -126 249 -258 283
-294 34 -36 90 -93 123 -127 l61 -62 -88 -148 c-48 -81 -94 -156 -100 -166
-11 -16 -17 -11 -51 50 -55 99 -52 94 -281 498 -116 204 -224 395 -240 425
-17 30 -63 111 -102 180 l-72 125 123 -126 c68 -69 222 -229 344 -355z m1210
-694 c352 -88 647 -164 657 -168 9 -4 -328 -7 -750 -7 -494 0 -768 4 -768 10
0 13 186 318 199 327 5 4 13 5 17 3 3 -3 294 -77 645 -165z"/>
<path d="M8035 6411 c-258 -111 -252 -107 -290 -137 -20 -15 -48 -48 -63 -73
-69 -117 0 -326 128 -391 49 -25 120 -31 178 -15 48 12 440 173 455 185 4 4
-3 32 -17 63 -23 52 -27 56 -48 48 -13 -5 -111 -46 -218 -90 -200 -83 -251
-96 -305 -73 -64 27 -101 132 -69 194 9 18 24 39 33 46 24 19 136 70 338 153
l131 54 -15 35 c-8 19 -19 45 -24 58 -5 12 -14 22 -21 21 -7 -1 -94 -36 -193
-78z"/>
<path d="M1708 6405 l-26 -73 20 -33 c40 -66 156 -304 149 -307 -5 -2 -171 54
-242 83 -12 4 -21 -7 -38 -51 -12 -32 -18 -60 -14 -64 4 -4 46 -21 93 -38 302
-110 532 -191 546 -194 11 -2 21 12 35 47 10 28 17 55 15 60 -2 6 -65 33 -140
59 -75 27 -136 53 -136 57 0 21 202 114 324 149 59 16 60 17 82 76 13 32 23
64 23 71 2 27 -271 -64 -396 -132 l-63 -34 -84 168 c-47 93 -93 183 -103 199
l-18 30 -27 -73z"/>
<path d="M1766 5174 c-176 -45 -259 -235 -175 -398 66 -128 240 -180 368 -110
157 85 195 287 80 418 -72 81 -174 115 -273 90z"/>
<path d="M8129 5179 c-186 -28 -289 -228 -204 -394 36 -71 94 -118 170 -140
169 -49 346 81 347 255 1 172 -146 304 -313 279z"/>
<path d="M7644 4123 c-10 -27 -21 -53 -25 -59 -5 -6 46 -33 144 -74 175 -72
305 -133 327 -152 31 -26 50 -63 50 -98 -1 -51 -34 -116 -72 -140 -55 -35
-108 -23 -334 73 -265 112 -238 107 -259 50 -10 -27 -22 -53 -27 -59 -8 -12
110 -66 384 -176 116 -47 188 -52 258 -21 122 54 204 252 156 377 -19 51 -75
110 -130 138 -50 26 -435 188 -446 188 -5 0 -16 -21 -26 -47z"/>
<path d="M2260 4101 c-69 -26 -210 -78 -315 -115 -104 -38 -194 -72 -198 -76
-8 -7 30 -120 40 -120 3 0 69 23 145 51 77 28 142 48 145 45 14 -14 -72 -198
-145 -311 l-44 -69 21 -68 c12 -38 26 -68 30 -68 24 0 190 278 227 379 10 28
21 51 25 51 3 0 53 -21 110 -46 158 -71 292 -125 297 -119 2 2 -6 34 -20 70
l-24 67 -165 70 c-90 38 -172 72 -181 75 -10 3 -18 8 -18 12 0 3 61 28 136 55
110 40 134 52 128 65 -3 9 -13 35 -21 59 -10 27 -21 42 -31 41 -10 0 -73 -22
-142 -48z"/>
<path d="M7386 3530 c-21 -28 -40 -58 -42 -65 -3 -7 8 -80 25 -161 41 -205 46
-238 29 -228 -7 4 -58 41 -114 81 -55 40 -105 73 -110 73 -10 -1 -79 -99 -73
-104 2 -1 87 -63 189 -136 102 -74 230 -167 284 -207 55 -40 102 -73 105 -73
6 1 71 93 71 102 0 3 -56 46 -125 97 -69 51 -125 94 -125 96 0 3 48 14 130 30
64 12 122 18 209 19 l93 2 45 59 44 60 -28 5 c-51 10 -276 0 -353 -15 -8 -2
-28 -6 -45 -9 -16 -3 -42 -8 -57 -12 -23 -4 -28 -2 -29 13 -2 55 -60 357 -77
403 -8 21 -10 20 -46 -30z"/>
<path d="M2769 3386 c-2 -2 -26 -7 -54 -11 -92 -12 -669 -148 -684 -161 -2 -2
12 -28 33 -58 30 -44 41 -53 59 -49 12 3 52 14 89 23 l66 18 35 -51 c19 -29
58 -84 86 -124 l50 -72 -44 -63 c-25 -35 -48 -68 -51 -75 -4 -9 62 -123 72
-123 5 0 162 225 237 340 106 164 188 301 185 309 -8 19 -64 100 -69 101 -3 0
-8 -2 -10 -4z m-79 -135 c0 -9 -144 -228 -163 -248 -9 -9 -27 10 -76 83 -35
52 -62 96 -60 99 3 2 18 7 34 10 17 3 82 19 145 35 63 16 116 29 118 29 1 1 2
-3 2 -8z"/>
<path d="M2990 2946 c-52 -58 -183 -202 -296 -325 -97 -106 -114 -125 -114
-132 0 -4 20 -25 45 -48 l46 -42 47 52 c26 29 67 75 92 101 l45 48 39 -36 39
-37 -7 -61 c-7 -71 -13 -107 -31 -196 l-13 -64 51 -47 c39 -36 54 -44 60 -34
14 26 56 247 57 303 0 21 3 23 33 16 87 -19 139 -5 199 53 107 103 89 233 -53
374 -58 59 -165 141 -179 138 -3 0 -30 -29 -60 -63z m200 -205 c41 -60 40 -99
-4 -145 -38 -41 -76 -47 -129 -20 -42 22 -129 94 -125 105 2 4 36 44 76 88
l74 80 39 -31 c22 -18 53 -52 69 -77z"/>
<path d="M6879 2906 c-269 -109 -317 -399 -100 -613 78 -78 144 -107 246 -108
66 0 90 5 137 27 76 35 151 107 185 177 24 47 28 69 28 137 0 72 -4 87 -37
155 -97 196 -294 292 -459 225z m226 -154 c89 -63 152 -182 141 -270 -17 -138
-180 -219 -299 -149 -96 56 -177 179 -177 268 0 90 78 183 167 199 48 8 115
-11 168 -48z"/>
<path d="M3467 2497 c-36 -62 -75 -131 -87 -152 -12 -22 -44 -77 -71 -123 -27
-45 -49 -85 -49 -87 0 -3 -15 -29 -34 -58 -50 -78 -49 -83 14 -119 30 -16 93
-53 140 -81 47 -27 110 -63 140 -80 30 -16 60 -34 67 -39 8 -6 19 4 37 35 27
45 32 67 17 67 -7 0 -279 155 -289 165 -2 2 20 44 49 94 l53 90 31 -19 c46
-28 135 -80 182 -106 l41 -24 27 46 c29 50 29 52 -30 84 -121 67 -196 113
-193 119 20 42 82 141 89 141 5 0 38 -18 74 -40 36 -22 67 -40 70 -40 3 0 34
-18 70 -40 l65 -40 15 25 c49 81 51 70 -13 105 -82 46 -241 139 -284 166 -21
13 -44 24 -52 24 -8 0 -44 -51 -79 -113z"/>
<path d="M6275 2481 c-89 -26 -265 -118 -265 -140 0 -7 77 -177 190 -416 23
-49 56 -120 74 -157 l31 -68 55 26 c30 14 56 27 59 29 2 2 -7 26 -19 52 -54
113 -90 196 -88 198 2 1 25 12 51 23 l48 22 102 -62 c56 -34 117 -72 135 -86
l32 -25 65 29 c35 16 65 32 65 35 0 9 -122 94 -209 144 l-81 47 25 29 c63 76
53 190 -24 272 -56 62 -141 78 -246 48z m122 -120 c30 -15 53 -62 53 -105 0
-44 -36 -82 -121 -125 -34 -17 -63 -30 -65 -29 -6 6 -94 199 -94 206 0 9 96
53 135 62 39 9 65 6 92 -9z"/>
<path d="M4035 2349 c-7 -22 -104 -344 -132 -439 -13 -47 -35 -118 -49 -159
-13 -41 -22 -76 -20 -79 9 -9 121 -39 123 -33 1 3 34 114 74 245 l73 239 19
-44 c28 -67 100 -289 138 -427 l34 -123 49 -14 c28 -8 53 -12 57 -8 4 5 19 49
34 98 29 97 59 197 130 429 25 82 44 150 42 153 -7 7 -117 36 -121 32 -2 -2
-31 -96 -65 -209 -34 -113 -64 -212 -67 -220 -3 -8 -31 62 -63 155 -109 321
-141 388 -187 398 -16 3 -37 9 -46 12 -11 4 -20 2 -23 -6z"/>
<path d="M5576 2260 c-210 -36 -326 -238 -267 -464 49 -186 180 -290 351 -281
100 6 175 38 240 104 63 64 90 127 95 221 14 270 -177 461 -419 420z m142
-129 c90 -46 144 -159 138 -288 -4 -97 -35 -151 -108 -187 -158 -79 -304 33
-316 244 -7 120 39 204 131 237 49 18 113 15 155 -6z"/>
<path d="M4652 2136 c-2 -40 1 -56 10 -57 7 0 47 -2 88 -4 41 -2 86 -3 99 -4
l23 -1 -7 -207 c-4 -115 -8 -251 -9 -303 l-1 -95 63 -3 c45 -2 62 1 63 10 3
34 6 100 13 303 4 121 9 236 10 255 l1 35 113 -3 112 -3 0 55 c0 54 -1 56 -27
57 -16 1 -46 2 -68 4 -22 1 -139 6 -260 10 l-220 7 -3 -56z"/>
</g>
</svg>
